<svg xmlns="http://www.w3.org/2000/svg" viewBox="0 0 512 512">
  <path d="M256,18 C390,4 494,100 498,248 C502,396 405,480 256,488 C107,496 10,396 14,248 C18,100 122,32 256,18Z" fill="#DDD0C0"/>
  <path d="M258,72 C365,58 445,142 450,250 C455,358 378,432 262,426 C146,420 65,348 62,242 C59,136 151,86 258,72Z" fill="#B8996E"/>
  <path d="M260,140 C330,130 390,180 394,252 C398,324 345,375 264,370 C183,365 125,320 122,250 C119,180 190,150 260,140Z" fill="#8B6642"/>
  <circle cx="261" cy="256" r="72" fill="#5C3D2E"/>
</svg>
